<mxfile host="app.diagrams.net" agent="Mozilla/5.0 (Windows NT 10.0; Win64; x64) AppleWebKit/537.36 (KHTML, like Gecko) Chrome/134.0.0.0 Safari/537.36" version="26.1.1">
  <diagram name="PÃ¡gina-1" id="k1FABToMCHfhbqe30DZh">
    <mxGraphModel dx="880" dy="460" grid="1" gridSize="10" guides="1" tooltips="1" connect="1" arrows="1" fold="1" page="1" pageScale="1" pageWidth="827" pageHeight="1169" math="0" shadow="0">
      <root>
        <mxCell id="0" />
        <mxCell id="1" parent="0" />
        <mxCell id="moiK748Dylu5m5wUNocA-3" value="" style="edgeStyle=orthogonalEdgeStyle;rounded=0;orthogonalLoop=1;jettySize=auto;html=1;" edge="1" parent="1" source="moiK748Dylu5m5wUNocA-1" target="moiK748Dylu5m5wUNocA-2">
          <mxGeometry relative="1" as="geometry" />
        </mxCell>
        <mxCell id="moiK748Dylu5m5wUNocA-1" value="inicio" style="ellipse;whiteSpace=wrap;html=1;" vertex="1" parent="1">
          <mxGeometry x="354" y="30" width="120" height="80" as="geometry" />
        </mxCell>
        <mxCell id="moiK748Dylu5m5wUNocA-5" value="" style="edgeStyle=orthogonalEdgeStyle;rounded=0;orthogonalLoop=1;jettySize=auto;html=1;" edge="1" parent="1" source="moiK748Dylu5m5wUNocA-2" target="moiK748Dylu5m5wUNocA-4">
          <mxGeometry relative="1" as="geometry" />
        </mxCell>
        <mxCell id="moiK748Dylu5m5wUNocA-2" value="valor, quantidade" style="shape=parallelogram;perimeter=parallelogramPerimeter;whiteSpace=wrap;html=1;fixedSize=1;" vertex="1" parent="1">
          <mxGeometry x="354" y="200" width="120" height="60" as="geometry" />
        </mxCell>
        <mxCell id="moiK748Dylu5m5wUNocA-7" value="" style="edgeStyle=orthogonalEdgeStyle;rounded=0;orthogonalLoop=1;jettySize=auto;html=1;" edge="1" parent="1" source="moiK748Dylu5m5wUNocA-4" target="moiK748Dylu5m5wUNocA-6">
          <mxGeometry relative="1" as="geometry" />
        </mxCell>
        <mxCell id="moiK748Dylu5m5wUNocA-4" value="venda = valor*quantidade&lt;div&gt;comissao = venda*5/100&lt;/div&gt;" style="whiteSpace=wrap;html=1;" vertex="1" parent="1">
          <mxGeometry x="321" y="350" width="186" height="60" as="geometry" />
        </mxCell>
        <mxCell id="moiK748Dylu5m5wUNocA-10" value="" style="edgeStyle=orthogonalEdgeStyle;rounded=0;orthogonalLoop=1;jettySize=auto;html=1;" edge="1" parent="1" source="moiK748Dylu5m5wUNocA-6" target="moiK748Dylu5m5wUNocA-9">
          <mxGeometry relative="1" as="geometry" />
        </mxCell>
        <mxCell id="moiK748Dylu5m5wUNocA-6" value="comissao" style="shape=document;whiteSpace=wrap;html=1;boundedLbl=1;" vertex="1" parent="1">
          <mxGeometry x="354" y="480" width="120" height="80" as="geometry" />
        </mxCell>
        <mxCell id="moiK748Dylu5m5wUNocA-9" value="fim" style="ellipse;whiteSpace=wrap;html=1;" vertex="1" parent="1">
          <mxGeometry x="374" y="640" width="80" height="80" as="geometry" />
        </mxCell>
      </root>
    </mxGraphModel>
  </diagram>
</mxfile>
